<svg xmlns="http://www.w3.org/2000/svg" viewBox="51 95 240 80" preserveAspectRatio="xMidYMid meet" color-interpolation-filters="sRGB">
<defs><linearGradient id="92" x1="0%" y1="0%" x2="100%" y2="0%"><stop offset="0%" stop-color="#fa71cd"/> <stop offset="100%" stop-color="#9b59b6"/></linearGradient><linearGradient id="93" x1="0%" y1="0%" x2="100%" y2="0%"><stop offset="0%" stop-color="#f9d423"/> <stop offset="100%" stop-color="#f83600"/></linearGradient><linearGradient id="94" x1="0%" y1="0%" x2="100%" y2="0%"><stop offset="0%" stop-color="#0064d2"/> <stop offset="100%" stop-color="#1cb0f6"/></linearGradient><linearGradient id="95" x1="0%" y1="0%" x2="100%" y2="0%"><stop offset="0%" stop-color="#f00978"/> <stop offset="100%" stop-color="#3f51b1"/></linearGradient><linearGradient id="96" x1="0%" y1="0%" x2="100%" y2="0%"><stop offset="0%" stop-color="#7873f5"/> <stop offset="100%" stop-color="#ec77ab"/></linearGradient><linearGradient id="97" x1="0%" y1="0%" x2="100%" y2="0%"><stop offset="0%" stop-color="#f9d423"/> <stop offset="100%" stop-color="#e14fad"/></linearGradient><linearGradient id="98" x1="0%" y1="0%" x2="100%" y2="0%"><stop offset="0%" stop-color="#009efd"/> <stop offset="100%" stop-color="#2af598"/></linearGradient><linearGradient id="99" x1="0%" y1="0%" x2="100%" y2="0%"><stop offset="0%" stop-color="#ffcc00"/> <stop offset="100%" stop-color="#00b140"/></linearGradient><linearGradient id="100" x1="0%" y1="0%" x2="100%" y2="0%"><stop offset="0%" stop-color="#d51007"/> <stop offset="100%" stop-color="#ff8177"/></linearGradient><linearGradient id="102" x1="0%" y1="0%" x2="100%" y2="0%"><stop offset="0%" stop-color="#a2b6df"/> <stop offset="100%" stop-color="#0c3483"/></linearGradient><linearGradient id="103" x1="0%" y1="0%" x2="100%" y2="0%"><stop offset="0%" stop-color="#7ac5d8"/> <stop offset="100%" stop-color="#eea2a2"/></linearGradient><linearGradient id="104" x1="0%" y1="0%" x2="100%" y2="0%"><stop offset="0%" stop-color="#00ecbc"/> <stop offset="100%" stop-color="#007adf"/></linearGradient><linearGradient id="105" x1="0%" y1="0%" x2="100%" y2="0%"><stop offset="0%" stop-color="#b88746"/> <stop offset="100%" stop-color="#fdf5a6"/></linearGradient></defs> <g fill="#333333" class="icon-text-wrapper icon-svg-group iconsvg" transform="translate(51.739990234375,95.41284370422363)"><g class="iconsvg-imagesvg" transform="translate(0,0)"><g><rect fill="#333333" fill-opacity="0" stroke-width="2" x="0" y="0" width="51.59999999999998" height="59.17431192660548" class="image-rect"/> <svg filter="url(#colors1910644325)" x="0" y="0" width="51.59999999999998" height="59.17431192660548" filtersec="colorsf3906815978" class="image-svg-svg primary" style="overflow: visible;"><svg xmlns:x="http://ns.adobe.com/Extensibility/1.0/" xmlns:i="http://ns.adobe.com/AdobeIllustrator/10.0/" xmlns:graph="http://ns.adobe.com/Graphs/1.0/" xmlns="http://www.w3.org/2000/svg" xmlns:xlink="http://www.w3.org/1999/xlink" version="1.1" x="0px" y="0px" viewBox="16.399999618530273 10 87.20000457763672 100.00003051757812" xml:space="preserve"><switch><foreignObject requiredExtensions="http://ns.adobe.com/AdobeIllustrator/10.0/" x="0" y="0" width="1" height="1"/><g i:extraneous="self"><g><path d="M37.2,44.9v0.7c0,0.7-0.4,1.4-1,1.8l-0.6,0.3l6.4,3.7v-0.7c0-0.7,0.4-1.4,1-1.8l0.6-0.3L37.2,44.9z"/><path d="M75.8,70.3c0.6-0.4,1-1,1-1.8v-0.7V52.1v-0.7c0-0.7-0.4-1.4-1-1.8l-0.6-0.3l-13.6-7.9L61,41.2c-0.3-0.2-0.7-0.3-1-0.3     c-0.4,0-0.7,0.1-1,0.3l-0.6,0.4l-13.6,7.8l-0.6,0.3c-0.6,0.4-1,1-1,1.8v0.7v15.7v0.7c0,0.7,0.4,1.4,1,1.8l0.6,0.4l13.5,7.8     l0.6,0.4c0.3,0.2,0.7,0.3,1,0.3c0.4,0,0.7-0.1,1-0.3l0.6-0.3l13.6-7.8L75.8,70.3z M72.7,54.5v11v1.8l-1.6,0.9l-9.5,5.5L60,74.7     l-1.6-0.9l-9.5-5.5l-1.6-0.9v-1.9V54.5v-1.9l1.6-0.9l9.5-5.5l1.6-0.9l1.6,0.9l9.5,5.5l1.6,0.9V54.5z"/><path d="M84.5,47.7l-0.6-0.3c-0.6-0.4-1-1-1-1.8v-0.7l-6.3,3.6l0.6,0.3c0.6,0.4,1,1,1,1.8v0.7L84.5,47.7z"/><path d="M102.6,34.2l-0.6-0.3l-6.6-3.8l-0.5-0.3c-0.3-0.2-0.7-0.3-1-0.3c-0.4,0-0.7,0.1-1,0.3l-0.5,0.3l-6.7,3.9l-0.5,0.3     c-0.6,0.4-1,1-1,1.8v0.6v7.6v0.7c0,0.7,0.4,1.4,1,1.8l0.6,0.3l6.6,3.8l0.5,0.3c0.3,0.2,0.7,0.3,1,0.3c0.4,0,0.7-0.1,1-0.3     l0.5-0.3l6.7-3.8l0.5-0.3c0.6-0.4,1-1,1-1.8v-0.6v-7.6V36C103.6,35.2,103.2,34.6,102.6,34.2z M100.6,38.4v4.1v1.8L99,45.1     l-3.6,2.1l-1.5,0.9l-1.5-0.9l-3.5-2l-1.6-0.9v-1.9v-4v-1.8l1.5-0.9l3.6-2.1l1.5-0.9l1.5,0.9l3.5,2l1.6,0.9V38.4z"/><path d="M60,80.6c-0.4,0-0.7-0.1-1-0.3L58.4,80l0,7.3l0.6-0.3c0.3-0.2,0.7-0.3,1-0.3c0.4,0,0.7,0.1,1,0.3l0.6,0.3l0-7.3L61,80.3     C60.7,80.5,60.4,80.6,60,80.6z"/><path d="M26.1,52.9c-0.4,0-0.7-0.1-1-0.3l-0.5-0.3v15.4l0.6-0.3c0.3-0.2,0.7-0.3,1-0.3s0.7,0.1,1,0.3l0.4,0.3V52.3l-0.5,0.3     C26.8,52.8,26.5,52.9,26.1,52.9z"/><path d="M93.9,67.1c0.4,0,0.7,0.1,1,0.3l0.5,0.3V52.3l-0.5,0.3c-0.3,0.2-0.7,0.3-1,0.3c-0.4,0-0.7-0.1-1-0.3l-0.5-0.3v15.3     l0.5-0.3C93.2,67.2,93.5,67.1,93.9,67.1z"/><path d="M82.8,84.7v-0.6l-13.3,7.7l0.5,0.3c0.6,0.4,1,1,1,1.8v0.6l13.3-7.7l-0.5-0.3C83.2,86.1,82.8,85.5,82.8,84.7z"/><path d="M68.7,92.9l-0.5-0.3l-6.6-3.8L61,88.4c-0.3-0.2-0.7-0.3-1-0.3c-0.4,0-0.7,0.1-1,0.3l-0.6,0.3l-6.6,3.8l-0.5,0.3     c-0.6,0.4-1,1-1,1.8v0.6v7.7v0.6c0,0.7,0.4,1.4,1,1.8l0.5,0.3l6.6,3.8l0.6,0.3c0.3,0.2,0.7,0.3,1,0.3c0.4,0,0.7-0.1,1-0.3     l0.6-0.3l6.6-3.8l0.5-0.3c0.6-0.4,1-1,1-1.8v-0.6v-7.7v-0.6C69.8,93.9,69.4,93.2,68.7,92.9z M66.7,97v4.2v1.8l-1.5,0.9l-3.5,2     l-1.6,0.9l-1.6-0.9l-3.5-2l-1.5-0.9v-1.8V97v-1.8l1.5-0.9l3.5-2l1.6-0.9l1.6,0.9l3.5,2l1.5,0.9V97z"/><path d="M102.6,73.3l-0.5-0.3l-6.6-3.8l-0.5-0.3c-0.3-0.2-0.7-0.3-1-0.3c-0.4,0-0.7,0.1-1,0.3l-0.5,0.3L85.8,73l-0.6,0.3     c-0.6,0.4-1,1-1,1.8v0.7v7.6V84c0,0.7,0.4,1.4,1,1.8l0.5,0.3l6.7,3.9l0.5,0.3c0.3,0.2,0.7,0.3,1,0.3c0.4,0,0.7-0.1,1-0.3l0.5-0.3     l6.6-3.8l0.6-0.3c0.6-0.4,1-1,1-1.8v-0.7v-7.6v-0.6C103.6,74.4,103.2,73.7,102.6,73.3z M100.5,77.5v4.1v1.9l-1.6,0.9l-3.5,2     l-1.6,0.9l-1.5-0.9l-3.6-2.1l-1.5-0.9v-1.8v-4.1v-1.9l1.6-0.9l3.5-2l1.5-0.9l1.6,0.9l3.6,2.1l1.5,0.9V77.5z"/><path d="M37.2,84.2v0.6c0,0.7-0.4,1.4-1,1.8l-0.5,0.3L49,94.5v-0.6c0-0.7,0.4-1.4,1-1.8l0.5-0.3L37.2,84.2z"/><path d="M35.9,83.4v-7.6v-0.7c0-0.7-0.4-1.4-1-1.8L34.3,73l-6.6-3.8l-0.4-0.3c-0.3-0.2-0.7-0.3-1-0.3s-0.7,0.1-1,0.3l-0.6,0.3     L18,73l-0.5,0.3c-0.6,0.4-1,1-1,1.8v0.6v7.6V84c0,0.7,0.4,1.4,1,1.8l0.6,0.3l6.5,3.8l0.6,0.3c0.3,0.2,0.7,0.3,1,0.3     s0.7-0.1,1-0.3l0.4-0.3l6.7-3.9l0.5-0.3c0.6-0.4,1-1,1-1.8V83.4z M32.8,77.6v4.1v1.8l-1.5,0.9l-3.7,2.1l-1.5,0.8l-1.6-0.9l-3.4-2     l-1.6-0.9v-1.9v-4.1v-1.8l1.5-0.9l3.5-2l1.6-0.9l1.5,0.8l3.6,2.1l1.6,0.9V77.6z"/><path d="M37.2,35.2v0.6l13.3-7.7L50,27.9c-0.6-0.4-1-1-1-1.8v-0.6l-13.3,7.7l0.5,0.3C36.8,33.8,37.2,34.5,37.2,35.2z"/><path d="M51.3,27.1l0.5,0.3l6.6,3.8l0.6,0.4c0.3,0.2,0.7,0.3,1,0.3c0.4,0,0.7-0.1,1-0.3l0.6-0.3l6.6-3.8l0.5-0.3     c0.6-0.4,1-1,1-1.8v-0.6v-7.7v-0.6c0-0.7-0.4-1.4-1-1.8l-0.5-0.3l-6.6-3.8L61,10.3c-0.3-0.2-0.7-0.3-1-0.3c-0.4,0-0.7,0.1-1,0.3     l-0.6,0.4l-6.5,3.8l-0.5,0.3c-0.6,0.4-1,1-1,1.8v0.6v7.7v0.6C50.3,26.1,50.7,26.8,51.3,27.1z M53.4,23v-4.1v-1.8l1.5-0.9l3.5-2     l1.7-1l1.6,0.9l3.5,2l1.5,0.9v1.8V23v1.8l-1.5,0.9l-3.6,2.1L60,28.6l-1.6-1l-3.5-2l-1.5-0.9V23z"/><path d="M17.4,46.6l0.5,0.3l6.7,3.8l0.5,0.3c0.3,0.2,0.7,0.3,1,0.3c0.4,0,0.7-0.1,1-0.3l0.5-0.3l6.6-3.8l0.6-0.3     c0.6-0.4,1-1,1-1.8v-0.7v-7.6V36c0-0.7-0.4-1.4-1-1.8l-0.5-0.3l-6.7-3.9l-0.5-0.3c-0.3-0.2-0.7-0.3-1-0.3c-0.4,0-0.7,0.1-1,0.3     l-0.5,0.3L18,33.9l-0.6,0.3c-0.6,0.4-1,1-1,1.8v0.7v7.6v0.6C16.4,45.6,16.8,46.3,17.4,46.6z M19.4,42.5v-4.1v-1.9l1.6-0.9l3.5-2     l1.5-0.9l1.5,0.9l3.6,2.1l1.5,0.9v1.8v4v1.9l-1.6,0.9l-3.5,2l-1.5,0.9l-1.5-0.9L21,45.2l-1.5-0.9V42.5z"/><path d="M82.8,35.8v-0.6c0-0.7,0.4-1.4,1-1.8l0.5-0.3l-13.3-7.6v0.6c0,0.7-0.4,1.4-1,1.8l-0.5,0.3L82.8,35.8z"/></g></g></switch></svg></svg> <defs><filter id="colors1910644325"><feColorMatrix type="matrix" values="0 0 0 0 0.19921875  0 0 0 0 0.19921875  0 0 0 0 0.19921875  0 0 0 1 0" class="icon-feColorMatrix "/></filter> <filter id="colorsf3906815978"><feColorMatrix type="matrix" values="0 0 0 0 0.99609375  0 0 0 0 0.99609375  0 0 0 0 0.99609375  0 0 0 1 0" class="icon-fecolormatrix"/></filter> <filter id="colorsb6757304631"><feColorMatrix type="matrix" values="0 0 0 0 0  0 0 0 0 0  0 0 0 0 0  0 0 0 1 0" class="icon-fecolormatrix"/></filter></defs></g></g> <g transform="translate(60.599998474121094,9.824155807495117)"><g fill-rule="" class="tp-name iconsvg-namesvg" transform="translate(0,0)"><g transform="scale(1)"><g><path d="M22.25-16.3C22.25-20.96 18.95-23.72 14.26-23.72L2.9-23.72 2.9 0 5.59 0 5.59-9.1 13.83-9.1 19.56 0 22.75 0 16.52-9.57C20.02-10.32 22.25-12.48 22.25-16.3ZM19.56-16.3C19.56-13 17.11-11.64 13.79-11.64L5.59-11.64 5.59-21.17 13.94-21.17C17.15-21.17 19.56-19.44 19.56-16.3ZM24.76-8.96C24.76-3.77 28.28 0.29 33.43 0.29 36.27 0.29 38.41-0.76 39.84-2.87L39.84 0 42.53 0 42.53-17.91 39.84-17.91 39.84-15.01C38.38-17.14 36.31-18.2 33.61-18.2 28.31-18.2 24.76-14.24 24.76-8.96ZM33.79-2.15C30-2.15 27.44-5.09 27.44-8.96 27.44-12.83 30-15.76 33.79-15.76 37.6-15.76 39.98-12.83 39.98-8.96 39.98-5.09 37.6-2.15 33.79-2.15ZM46.4-13.08C46.4-11.98 46.69-11.12 47.28-10.5 49.05-8.61 52.38-8.32 55.25-7.51 56.68-7.1 58.33-6.51 58.33-4.84 58.33-2.61 55.8-2.01 53.37-2.01 50.72-2.01 48.94-3.49 48.73-5.63L45.93-5.63C46.03-3.93 46.72-2.56 48.01-1.5 49.42-0.31 51.32 0.29 53.71 0.29 57.73 0.29 61.02-1.27 61.02-5.09 61.02-6.21 60.72-7.09 60.14-7.74 58.38-9.67 55.08-10 52.17-10.78 50.75-11.17 49.08-11.7 49.08-13.33 49.08-15.05 50.46-15.91 53.22-15.91 55.98-15.91 57.48-14.98 57.72-13.11L60.44-13.11C60.05-16.49 57.24-18.2 53.42-18.2 49.4-18.2 46.4-16.78 46.4-13.08ZM72.55-15.76C75.63-15.76 77.57-13.5 77.57-10.35L77.57 0 80.25 0 80.25-10.43C80.25-12.81 79.51-14.74 78.03-16.19 76.79-17.49 75.18-18.2 72.7-18.2 70.12-18.2 68.3-16.66 67.14-15.12L67.14-25.08 64.45-25.08 64.45 0 67.14 0 67.14-10.32C67.14-13.43 69.47-15.76 72.55-15.76ZM84.73-17.91L84.73 0 87.42 0 87.42-17.91ZM87.53-24.43L84.63-24.43 84.63-20.92 87.53-20.92ZM90.97-8.96C90.97-3.77 94.49 0.29 99.64 0.29 102.48 0.29 104.62-0.76 106.05-2.87L106.05 0 108.74 0 108.74-25.08 106.05-25.08 106.05-15.01C104.59-17.14 102.52-18.2 99.82-18.2 94.52-18.2 90.97-14.24 90.97-8.96ZM100-2.15C96.21-2.15 93.65-5.09 93.65-8.96 93.65-12.83 96.21-15.76 100-15.76 103.81-15.76 106.19-12.83 106.19-8.96 106.19-5.09 103.81-2.15 100-2.15ZM124.29-23.72L121.6-23.72 121.6 0 137.22 0 137.22-2.58 124.29-2.58ZM138.62-8.96C138.62-3.77 142.14 0.29 147.29 0.29 150.13 0.29 152.27-0.76 153.7-2.87L153.7 0 156.39 0 156.39-17.91 153.7-17.91 153.7-15.01C152.25-17.14 150.17-18.2 147.47-18.2 142.17-18.2 138.62-14.24 138.62-8.96ZM147.65-2.15C143.86-2.15 141.31-5.09 141.31-8.96 141.31-12.83 143.86-15.76 147.65-15.76 151.47-15.76 153.85-12.83 153.85-8.96 153.85-5.09 151.47-2.15 147.65-2.15ZM178.82-8.96C178.82-14.1 175.28-18.2 170.15-18.2 167.33-18.2 165.19-17.14 163.73-15.01L163.73-25.08 161.05-25.08 161.05 0 163.73 0 163.73-2.87C165.17-0.76 167.24 0.29 169.95 0.29 175.25 0.29 178.82-3.7 178.82-8.96ZM169.79-2.15C165.97-2.15 163.59-5.09 163.59-8.96 163.59-12.83 165.97-15.76 169.79-15.76 173.58-15.76 176.13-12.83 176.13-8.96 176.13-5.09 173.58-2.15 169.79-2.15Z" transform="translate(-2.9000000953674316, 25.079999923706055)"/></g> </g></g> <g fill-rule="" class="tp-slogan iconsvg-slogansvg" fill="#333333" transform="translate(27.495006561279297,31.3700008392334)"> <g transform="scale(1, 1)"><g transform="scale(1)"><path d="M0.62-3.94L0.62-3.94Q0.62-4.88 0.89-5.64Q1.15-6.40 1.62-6.92Q2.09-7.45 2.73-7.73Q3.37-8.02 4.13-8.02L4.13-8.02Q4.85-8.02 5.39-7.72Q5.93-7.43 6.28-7.04L6.28-7.04L5.71-6.41Q5.40-6.74 5.02-6.94Q4.64-7.14 4.14-7.14L4.14-7.14Q3.58-7.14 3.12-6.92Q2.66-6.70 2.34-6.28Q2.02-5.87 1.84-5.28Q1.66-4.69 1.66-3.96L1.66-3.96Q1.66-3.22 1.83-2.62Q2.00-2.03 2.32-1.61Q2.63-1.19 3.08-0.96Q3.53-0.73 4.09-0.73L4.09-0.73Q4.67-0.73 5.09-0.96Q5.52-1.19 5.90-1.61L5.90-1.61L6.47-1.00Q6-0.46 5.41-0.16Q4.82 0.14 4.07 0.14L4.07 0.14Q3.32 0.14 2.69-0.13Q2.06-0.41 1.60-0.93Q1.14-1.45 0.88-2.21Q0.62-2.98 0.62-3.94ZM8.92-3.20L11.28-3.20L10.91-4.40Q10.69-5.06 10.50-5.72Q10.31-6.37 10.12-7.06L10.12-7.06L10.07-7.06Q9.89-6.37 9.70-5.72Q9.50-5.06 9.29-4.40L9.29-4.40L8.92-3.20ZM12.28 0L11.53-2.40L8.66-2.40L7.91 0L6.89 0L9.55-7.87L10.68-7.87L13.34 0L12.28 0ZM14.46 0L14.46-7.87L15.49-7.87L18.34-2.93L19.19-1.30L19.24-1.30Q19.20-1.90 19.16-2.54Q19.12-3.18 19.12-3.80L19.12-3.80L19.12-7.87L20.06-7.87L20.06 0L19.03 0L16.18-4.96L15.32-6.58L15.28-6.58Q15.32-5.98 15.37-5.36Q15.41-4.74 15.41-4.12L15.41-4.12L15.41 0L14.46 0ZM21.77-3.94L21.77-3.94Q21.77-4.88 22.03-5.64Q22.30-6.40 22.76-6.92Q23.23-7.45 23.87-7.73Q24.52-8.02 25.27-8.02L25.27-8.02Q25.99-8.02 26.53-7.72Q27.07-7.43 27.42-7.04L27.42-7.04L26.86-6.41Q26.54-6.74 26.17-6.94Q25.79-7.14 25.28-7.14L25.28-7.14Q24.72-7.14 24.26-6.92Q23.81-6.70 23.48-6.28Q23.16-5.87 22.98-5.28Q22.80-4.69 22.80-3.96L22.80-3.96Q22.80-3.22 22.97-2.62Q23.15-2.03 23.46-1.61Q23.77-1.19 24.22-0.96Q24.67-0.73 25.24-0.73L25.24-0.73Q25.81-0.73 26.24-0.96Q26.66-1.19 27.05-1.61L27.05-1.61L27.61-1.00Q27.14-0.46 26.56-0.16Q25.97 0.14 25.21 0.14L25.21 0.14Q24.47 0.14 23.84-0.13Q23.21-0.41 22.75-0.93Q22.28-1.45 22.03-2.21Q21.77-2.98 21.77-3.94ZM29.08 0L29.08-7.87L33.61-7.87L33.61-7.03L30.07-7.03L30.07-4.56L33.06-4.56L33.06-3.71L30.07-3.71L30.07-0.85L33.73-0.85L33.73 0L29.08 0ZM36.40-7.07L36.40-4.14L37.72-4.14Q38.64-4.14 39.13-4.52Q39.62-4.90 39.62-5.66L39.62-5.66Q39.62-6.44 39.13-6.76Q38.64-7.07 37.72-7.07L37.72-7.07L36.40-7.07ZM40.85 0L39.72 0L37.82-3.32L36.40-3.32L36.40 0L35.40 0L35.40-7.87L37.86-7.87Q38.46-7.87 38.97-7.76Q39.48-7.64 39.85-7.38Q40.21-7.12 40.42-6.70Q40.62-6.28 40.62-5.66L40.62-5.66Q40.62-4.74 40.14-4.19Q39.66-3.64 38.86-3.43L38.86-3.43L40.85 0ZM44.80 0L44.80-7.87L46.76-7.87Q48.59-7.87 49.54-6.86Q50.48-5.86 50.48-3.97L50.48-3.97Q50.48-3.04 50.24-2.30Q50.00-1.56 49.54-1.05Q49.07-0.54 48.38-0.27Q47.70 0 46.81 0L46.81 0L44.80 0ZM45.79-0.82L46.69-0.82Q48.07-0.82 48.76-1.64Q49.45-2.47 49.45-3.97L49.45-3.97Q49.45-5.47 48.76-6.26Q48.07-7.06 46.69-7.06L46.69-7.06L45.79-7.06L45.79-0.82ZM53.04-3.20L55.40-3.20L55.03-4.40Q54.82-5.06 54.62-5.72Q54.43-6.37 54.24-7.06L54.24-7.06L54.19-7.06Q54.01-6.37 53.82-5.72Q53.63-5.06 53.41-4.40L53.41-4.40L53.04-3.20ZM56.40 0L55.66-2.40L52.79-2.40L52.03 0L51.01 0L53.68-7.87L54.80-7.87L57.47 0L56.40 0ZM59.74 0L59.74-7.03L57.36-7.03L57.36-7.87L63.12-7.87L63.12-7.03L60.74-7.03L60.74 0L59.74 0ZM65.04-3.20L67.40-3.20L67.03-4.40Q66.82-5.06 66.62-5.72Q66.43-6.37 66.24-7.06L66.24-7.06L66.19-7.06Q66.01-6.37 65.82-5.72Q65.63-5.06 65.41-4.40L65.41-4.40L65.04-3.20ZM68.40 0L67.66-2.40L64.79-2.40L64.03 0L63.01 0L65.68-7.87L66.80-7.87L69.47 0L68.40 0ZM72.43-1.02L73.03-1.72Q73.45-1.27 74.02-1.00Q74.59-0.73 75.20-0.73L75.20-0.73Q75.98-0.73 76.42-1.09Q76.85-1.44 76.85-2.02L76.85-2.02Q76.85-2.32 76.75-2.53Q76.64-2.74 76.47-2.89Q76.30-3.04 76.06-3.16Q75.82-3.28 75.54-3.41L75.54-3.41L74.41-3.90Q74.14-4.02 73.85-4.19Q73.56-4.36 73.33-4.60Q73.10-4.84 72.96-5.17Q72.82-5.50 72.82-5.93L72.82-5.93Q72.82-6.37 73.00-6.76Q73.19-7.14 73.52-7.42Q73.85-7.70 74.30-7.86Q74.75-8.02 75.29-8.02L75.29-8.02Q76.00-8.02 76.60-7.75Q77.20-7.48 77.62-7.04L77.62-7.04L77.08-6.40Q76.72-6.74 76.28-6.94Q75.84-7.14 75.29-7.14L75.29-7.14Q74.63-7.14 74.23-6.83Q73.82-6.53 73.82-5.99L73.82-5.99Q73.82-5.70 73.94-5.50Q74.05-5.30 74.24-5.15Q74.44-5.00 74.66-4.89Q74.89-4.78 75.13-4.68L75.13-4.68L76.25-4.20Q76.58-4.06 76.88-3.87Q77.18-3.68 77.40-3.44Q77.62-3.19 77.74-2.86Q77.87-2.53 77.87-2.10L77.87-2.10Q77.87-1.63 77.68-1.22Q77.50-0.82 77.15-0.51Q76.80-0.20 76.31-0.03Q75.82 0.14 75.19 0.14L75.19 0.14Q74.36 0.14 73.66-0.17Q72.95-0.48 72.43-1.02L72.43-1.02ZM78.96-3.94L78.96-3.94Q78.96-4.88 79.22-5.64Q79.49-6.40 79.96-6.92Q80.42-7.45 81.07-7.73Q81.71-8.02 82.46-8.02L82.46-8.02Q83.18-8.02 83.72-7.72Q84.26-7.43 84.61-7.04L84.61-7.04L84.05-6.41Q83.74-6.74 83.36-6.94Q82.98-7.14 82.48-7.14L82.48-7.14Q81.91-7.14 81.46-6.92Q81.00-6.70 80.68-6.28Q80.35-5.87 80.17-5.28Q79.99-4.69 79.99-3.96L79.99-3.96Q79.99-3.22 80.17-2.62Q80.34-2.03 80.65-1.61Q80.96-1.19 81.41-0.96Q81.86-0.73 82.43-0.73L82.43-0.73Q83.00-0.73 83.43-0.96Q83.86-1.19 84.24-1.61L84.24-1.61L84.80-1.00Q84.34-0.46 83.75-0.16Q83.16 0.14 82.40 0.14L82.40 0.14Q81.66 0.14 81.03-0.13Q80.40-0.41 79.94-0.93Q79.48-1.45 79.22-2.21Q78.96-2.98 78.96-3.94ZM86.27 0L86.27-7.87L87.26-7.87L87.26 0L86.27 0ZM89.42 0L89.42-7.87L93.96-7.87L93.96-7.03L90.42-7.03L90.42-4.56L93.41-4.56L93.41-3.71L90.42-3.71L90.42-0.85L94.08-0.85L94.08 0L89.42 0ZM95.75 0L95.75-7.87L96.78-7.87L99.62-2.93L100.48-1.30L100.52-1.30Q100.49-1.90 100.45-2.54Q100.40-3.18 100.40-3.80L100.40-3.80L100.40-7.87L101.35-7.87L101.35 0L100.32 0L97.46-4.96L96.61-6.58L96.56-6.58Q96.61-5.98 96.65-5.36Q96.70-4.74 96.70-4.12L96.70-4.12L96.70 0L95.75 0ZM103.06-3.94L103.06-3.94Q103.06-4.88 103.32-5.64Q103.58-6.40 104.05-6.92Q104.52-7.45 105.16-7.73Q105.80-8.02 106.56-8.02L106.56-8.02Q107.28-8.02 107.82-7.72Q108.36-7.43 108.71-7.04L108.71-7.04L108.14-6.41Q107.83-6.74 107.45-6.94Q107.08-7.14 106.57-7.14L106.57-7.14Q106.01-7.14 105.55-6.92Q105.10-6.70 104.77-6.28Q104.45-5.87 104.27-5.28Q104.09-4.69 104.09-3.96L104.09-3.96Q104.09-3.22 104.26-2.62Q104.44-2.03 104.75-1.61Q105.06-1.19 105.51-0.96Q105.96-0.73 106.52-0.73L106.52-0.73Q107.10-0.73 107.53-0.96Q107.95-1.19 108.34-1.61L108.34-1.61L108.90-1.00Q108.43-0.46 107.84-0.16Q107.26 0.14 106.50 0.14L106.50 0.14Q105.76 0.14 105.13-0.13Q104.50-0.41 104.03-0.93Q103.57-1.45 103.31-2.21Q103.06-2.98 103.06-3.94ZM110.36 0L110.36-7.87L114.90-7.87L114.90-7.03L111.36-7.03L111.36-4.56L114.35-4.56L114.35-3.71L111.36-3.71L111.36-0.85L115.02-0.85L115.02 0L110.36 0ZM116.11-1.02L116.71-1.72Q117.13-1.27 117.70-1.00Q118.27-0.73 118.88-0.73L118.88-0.73Q119.66-0.73 120.10-1.09Q120.53-1.44 120.53-2.02L120.53-2.02Q120.53-2.32 120.43-2.53Q120.32-2.74 120.15-2.89Q119.98-3.04 119.74-3.16Q119.50-3.28 119.22-3.41L119.22-3.41L118.09-3.90Q117.82-4.02 117.53-4.19Q117.24-4.36 117.01-4.60Q116.78-4.84 116.64-5.17Q116.50-5.50 116.50-5.93L116.50-5.93Q116.50-6.37 116.68-6.76Q116.87-7.14 117.20-7.42Q117.53-7.70 117.98-7.86Q118.43-8.02 118.97-8.02L118.97-8.02Q119.68-8.02 120.28-7.75Q120.88-7.48 121.30-7.04L121.30-7.04L120.76-6.40Q120.40-6.74 119.96-6.94Q119.52-7.14 118.97-7.14L118.97-7.14Q118.31-7.14 117.91-6.83Q117.50-6.53 117.50-5.99L117.50-5.99Q117.50-5.70 117.62-5.50Q117.73-5.30 117.92-5.15Q118.12-5.00 118.34-4.89Q118.57-4.78 118.81-4.68L118.81-4.68L119.93-4.20Q120.26-4.06 120.56-3.87Q120.86-3.68 121.08-3.44Q121.30-3.19 121.42-2.86Q121.55-2.53 121.55-2.10L121.55-2.10Q121.55-1.63 121.36-1.22Q121.18-0.82 120.83-0.51Q120.48-0.20 119.99-0.03Q119.50 0.14 118.87 0.14L118.87 0.14Q118.04 0.14 117.34-0.17Q116.63-0.48 116.11-1.02L116.11-1.02Z" transform="translate(-0.624, 8.016)"/></g></g></g></g></g><defs v-gra="od"/>
  </svg>

</svg>
